:SAMPLES-PER-SECOND 30
:FULLY-SPECIFIED
:DEGREES
193
root  -22.3625 5.68003 -17.1743 175.503 -0.27916 -165.462
RightUpLeg  -85.943 -7.3075 17.1664
RightLeg  159.563 11.847 -4.98509
RightFoot  -56.8256 5.83572 11.3775
RightToes  -3.60413 -0.00935223 -0.0353362
Spine  27.1092 2.73111 8.17759
Spine1  43.7416 3.53429 11.951
HEad  -77.8527 -1.55819 8.06692
LeftShoulder1  -1.94126e-019 -3.10601e-018 -2.51263e-017
LeftArm  22.5204 -70.2054 -121.324
LeftForeArm  23.2899 -7.36987 -1.28449
LeftHand  -0.481449 0.116319 10.6619
RightShoulder  -4.96962e-017 0 -2.36833e-017
RightArm  -44.0164 76.0045 77.3632
RightForeArm  61.5823 9.48097 1.51502
RightHand  -0.106646 -4.40254 -10.7049
LeftUpLeg  -90.6507 15.7859 35.737
LeftLeg  164.423 8.87162 -3.08153
LeftFoot  -50.7329 -1.68045 -3.38199
LeftToes  -23.533 2.03064e-006 1.83538e-008
194
root  -22.3602 5.67289 -17.1736 175.47 -0.326309 -165.469
RightUpLeg  -85.9466 -7.33962 17.1977
RightLeg  159.59 11.9025 -5.00259
RightFoot  -56.8495 5.8579 11.4131
RightToes  -3.50763 -0.0100425 -0.0350425
Spine  27.1041 2.70912 8.15742
Spine1  43.725 3.49006 11.932
HEad  -77.6306 -1.74192 8.13652
LeftShoulder1  -1.94126e-019 -3.10601e-018 -2.51263e-017
LeftArm  22.6962 -70.2058 -121.423
LeftForeArm  22.9824 -7.00851 -1.22099
LeftHand  -0.469331 0.243006 10.6389
RightShoulder  -4.96962e-017 0 -2.36833e-017
RightArm  -44.4453 75.8512 77.0663
RightForeArm  62.296 9.13033 1.49038
RightHand  -0.0792359 -4.71572 -10.7638
LeftUpLeg  -90.7149 15.7433 35.7831
LeftLeg  164.431 8.91598 -3.09526
LeftFoot  -50.648 -1.67085 -3.36849
LeftToes  -23.6096 2.03064e-006 1.83538e-008
195
root  -22.3568 5.66865 -17.1821 175.433 -0.375183 -165.485
RightUpLeg  -85.8762 -7.38467 17.225
RightLeg  159.625 11.9584 -5.01825
RightFoot  -56.9177 5.89062 11.4581
RightToes  -3.37082 -0.010709 -0.034836
Spine  27.0959 2.70144 8.13467
Spine1  43.6853 3.45497 11.9255
HEad  -77.2555 -1.96066 8.17426
LeftShoulder1  -1.94126e-019 -3.10601e-018 -2.51263e-017
LeftArm  23.2487 -70.2362 -121.992
LeftForeArm  23.2088 -6.95204 -1.21093
LeftHand  -0.469103 0.401125 10.9563
RightShoulder  -4.96962e-017 0 -2.36833e-017
RightArm  -44.7306 75.8664 76.9238
RightForeArm  62.9859 8.71914 1.45089
RightHand  -0.073048 -4.80101 -11.0945
LeftUpLeg  -90.6752 15.6789 35.8191
LeftLeg  164.439 8.93945 -3.10196
LeftFoot  -50.6433 -1.67097 -3.36912
LeftToes  -23.7699 2.03064e-006 1.83538e-008
196
root  -22.3597 5.6664 -17.1957 175.3 -0.378098 -165.595
RightUpLeg  -85.69 -7.42151 17.0585
RightLeg  159.671 11.9354 -4.99703
RightFoot  -56.9718 5.89448 11.4529
RightToes  -3.44411 -0.01135 -0.03473
Spine  27.1691 2.70197 8.06166
Spine1  43.749 3.38441 11.9081
HEad  -77.0253 -2.29568 8.19718
LeftShoulder1  -1.94126e-019 -3.10601e-018 -2.51263e-017
LeftArm  24.5693 -70.2475 -122.877
LeftForeArm  23.5477 -7.28368 -1.26877
LeftHand  -0.487902 0.411079 11.4168
RightShoulder  -4.96962e-017 0 -2.36833e-017
RightArm  -44.4429 76.1316 77.1432
RightForeArm  63.9029 8.29729 1.39933
RightHand  -0.0578502 -4.97827 -11.5055
LeftUpLeg  -90.4388 15.5324 35.719
LeftLeg  164.457 8.86349 -3.07282
LeftFoot  -50.7683 -1.70575 -3.43243
LeftToes  -23.6188 2.03064e-006 1.83538e-008
197
root  -22.3622 5.66198 -17.2059 175.27 -0.399506 -165.582
RightUpLeg  -85.595 -7.43895 17.0789
RightLeg  159.693 11.9928 -5.01643
RightFoot  -57.0251 5.92298 11.4933
RightToes  -3.45769 -0.0119636 -0.0347378
Spine  27.1526 2.70137 8.02064
Spine1  43.671 3.33474 11.9019
HEad  -76.7324 -2.41876 8.44377
LeftShoulder1  -1.94126e-019 -3.10601e-018 -2.51263e-017
LeftArm  25.344 -70.1051 -123.802
LeftForeArm  23.9843 -7.75036 -1.35152
LeftHand  -0.489268 0.422723 11.4744
RightShoulder  -4.96962e-017 0 -2.36833e-017
RightArm  -43.2885 76.1219 78.1093
RightForeArm  64.906 8.09645 1.36949
RightHand  -0.0702572 -4.86013 -11.8046
LeftUpLeg  -90.3229 15.4401 35.8025
LeftLeg  164.477 8.90385 -3.08314
LeftFoot  -50.8851 -1.71305 -3.43832
LeftToes  -23.784 2.03064e-006 1.83538e-008
198
root  -22.3732 5.65894 -17.2172 175.114 -0.465103 -165.639
RightUpLeg  -85.3648 -7.50885 16.944
RightLeg  159.736 12.0333 -5.02333
RightFoot  -57.1139 5.95677 11.5353
RightToes  -3.3882 -0.0125478 -0.0348726
Spine  27.2182 2.65591 7.89905
Spine1  43.7119 3.2217 11.7773
HEad  -76.5487 -2.57313 8.77065
LeftShoulder1  -1.94126e-019 -3.10601e-018 -2.51263e-017
LeftArm  26.8641 -70.018 -124.667
LeftForeArm  23.941 -8.34986 -1.45833
LeftHand  -0.487293 0.367291 11.307
RightShoulder  -4.96962e-017 0 -2.36833e-017
RightArm  -40.7182 76.2701 79.5982
RightForeArm  65.9322 7.75345 1.31344
RightHand  -0.0835175 -4.74214 -12.1552
LeftUpLeg  -90.1579 15.158 35.6608
LeftLeg  164.513 8.7484 -3.02376
LeftFoot  -51.0189 -1.77091 -3.54869
LeftToes  -23.726 2.03064e-006 1.83538e-008
199
root  -22.3948 5.65487 -17.2264 174.945 -0.590469 -165.665
RightUpLeg  -85.1537 -7.64234 16.7013
RightLeg  159.777 12.0074 -5.00213
RightFoot  -57.2132 5.97305 11.5425
RightToes  -3.03717 -0.0131008 -0.0351479
Spine  27.2951 2.57238 7.80759
Spine1  43.7765 3.02316 11.6939
HEad  -76.5654 -2.72465 8.9438
LeftShoulder1  -1.94126e-019 -3.10601e-018 -2.51263e-017
LeftArm  28.9225 -69.933 -125.948
LeftForeArm  24.2008 -8.72848 -1.52503
LeftHand  -0.504843 0.121476 11.1881
RightShoulder  -4.96962e-017 0 -2.36833e-017
RightArm  -36.7822 76.397 81.5932
RightForeArm  66.5123 7.56606 1.28
RightHand  -0.075302 -4.83159 -12.3678
LeftUpLeg  -90.1042 14.784 35.4714
LeftLeg  164.568 8.5413 -2.94355
LeftFoot  -51.1359 -1.84484 -3.69336
LeftToes  -23.4009 2.03064e-006 1.83538e-008
200
root  -22.4069 5.65052 -17.2225 174.873 -0.589081 -165.642
RightUpLeg  -85.0912 -7.57944 16.6304
RightLeg  159.77 12.0672 -5.0297
RightFoot  -57.1 5.97172 11.5659
RightToes  -3.51295 -0.0136207 -0.0355769
Spine  27.295 2.53548 7.7544
Spine1  43.7121 2.88113 11.6894
HEad  -76.3476 -2.90407 8.98398
LeftShoulder1  -1.94126e-019 -3.10601e-018 -2.51263e-017
LeftArm  30.0957 -69.6043 -126.768
LeftForeArm  25.1849 -9.04891 -1.58162
LeftHand  -0.516663 -0.159979 10.8922
RightShoulder  -4.96962e-017 0 -2.36833e-017
RightArm  -33.8844 76.446 83.6996
RightForeArm  68.5615 7.04623 1.18167
RightHand  -0.121544 -4.36875 -12.1815
LeftUpLeg  -90.1291 14.6137 35.3444
LeftLeg  164.615 8.34442 -2.8687
LeftFoot  -51.1799 -1.91467 -3.83525
LeftToes  -23.168 2.03064e-006 1.83538e-008
201
root  -22.4266 5.64725 -17.2188 174.746 -0.637527 -165.595
RightUpLeg  -85.0179 -7.62522 16.4887
RightLeg  159.772 12.0629 -5.02724
RightFoot  -56.9179 5.93544 11.5407
RightToes  -3.86009 -0.0141056 -0.036173
Spine  27.3283 2.46855 7.6922
Spine1  43.721 2.6909 11.6552
HEad  -76.3543 -3.04217 9.03242
LeftShoulder1  -1.94126e-019 -3.10601e-018 -2.51263e-017
LeftArm  31.6011 -69.4316 -127.821
LeftForeArm  25.9334 -9.03882 -1.57905
LeftHand  -0.531986 -0.548421 10.5085
RightShoulder  -4.96962e-017 0 -2.36833e-017
RightArm  -30.3135 76.5527 86.0518
RightForeArm  69.7781 6.51623 1.08428
RightHand  -0.144967 -4.14256 -12.2287
LeftUpLeg  -90.1109 14.3471 35.2609
LeftLeg  164.678 8.1977 -2.80865
LeftFoot  -51.2825 -1.97314 -3.94779
LeftToes  -22.6421 2.03064e-006 1.83538e-008
202
root  -22.4452 5.64578 -17.2105 174.626 -0.630966 -165.554
RightUpLeg  -84.9719 -7.6327 16.3554
RightLeg  159.756 12.0219 -5.01356
RightFoot  -56.7736 5.89452 11.498
RightToes  -4.03311 -0.0145536 -0.0374766
Spine  27.3608 2.41559 7.62094
Spine1  43.7357 2.52749 11.6178
HEad  -76.4437 -3.15269 9.03305
LeftShoulder1  -1.94126e-019 -3.10601e-018 -2.51263e-017
LeftArm  32.7736 -69.2707 -128.506
LeftForeArm  26.3776 -8.93124 -1.55924
LeftHand  -0.54367 -0.859557 10.2301
RightShoulder  -4.96962e-017 0 -2.36833e-017
RightArm  -26.6809 76.6203 88.3503
RightForeArm  70.937 6.02604 0.994706
RightHand  -0.147694 -4.11589 -12.2297
LeftUpLeg  -90.1228 14.139 35.146
LeftLeg  164.721 8.00635 -2.73685
LeftFoot  -51.2992 -2.0319 -4.06849
LeftToes  -22.5058 2.03064e-006 1.83538e-008
